<?xml version="1.0" standalone="no"?>
<!DOCTYPE svg PUBLIC "-//W3C//DTD SVG 20010904//EN"
 "http://www.w3.org/TR/2001/REC-SVG-20010904/DTD/svg10.dtd">
<svg version="1.0" xmlns="http://www.w3.org/2000/svg"
 width="400.000000pt" height="400.000000pt" viewBox="0 0 400.000000 400.000000"
 preserveAspectRatio="xMidYMid meet">
<metadata>
Created by potrace 1.14, written by Peter Selinger 2001-2017
</metadata>
<g transform="translate(0.000000,400.000000) scale(0.100000,-0.100000)"
fill="#000000" stroke="none">
<path d="M2740 3492 c-19 -9 -45 -33 -58 -52 -21 -30 -23 -43 -18 -94 3 -32
11 -65 17 -72 9 -11 7 -14 -12 -14 -39 0 -182 -87 -295 -179 -169 -138 -169
-138 -250 -156 -91 -20 -152 -46 -222 -94 -60 -41 -72 -69 -49 -116 15 -32 17
-33 84 -35 136 -5 125 -1 138 -47 7 -23 22 -57 34 -77 l22 -35 -22 -11 c-43
-24 -132 -24 -198 -1 -47 16 -67 19 -82 11 -21 -12 -21 -13 23 -75 l29 -39
-25 -19 c-15 -10 -26 -27 -26 -36 0 -15 -19 -20 -132 -34 -73 -9 -216 -38
-318 -63 -168 -42 -198 -47 -320 -49 -174 -3 -229 -25 -270 -106 -11 -21 -27
-39 -34 -39 -8 0 -30 -18 -49 -39 -34 -38 -57 -92 -57 -138 0 -12 -8 -24 -19
-28 -30 -9 -51 -67 -57 -157 -6 -95 -25 -156 -57 -186 -12 -11 -62 -35 -111
-53 -69 -25 -100 -42 -133 -75 -24 -24 -43 -50 -43 -58 0 -9 -13 -30 -30 -49
-36 -41 -50 -77 -50 -126 0 -164 179 -303 298 -231 41 25 40 30 -1 23 -106
-17 -153 111 -78 214 21 30 51 50 123 85 52 25 107 57 124 71 16 13 44 32 61
41 49 25 100 73 166 155 64 81 75 103 86 171 8 49 10 47 36 -50 30 -112 30
-138 4 -167 -26 -28 -113 -73 -141 -73 -34 0 -149 -53 -163 -74 -11 -16 -15
-76 -19 -236 -5 -207 -16 -314 -36 -334 -5 -5 -23 -10 -39 -11 -46 -4 -75 -27
-106 -87 -39 -74 -32 -88 43 -88 53 0 64 4 113 41 30 22 71 49 91 60 43 22 45
30 51 244 3 102 9 151 21 180 22 50 29 40 50 -74 21 -112 30 -237 19 -286 -8
-36 -12 -40 -41 -43 -27 -3 -38 -12 -62 -50 -58 -91 -49 -149 19 -137 63 11
68 14 146 105 l76 89 -12 63 c-19 98 -16 285 5 330 17 35 24 39 119 68 171 53
329 111 400 148 114 59 177 148 177 251 0 37 34 65 143 117 57 27 91 37 125
37 26 -1 103 -2 172 -4 86 -1 153 3 215 15 169 32 320 67 350 81 17 7 84 40
150 71 91 45 129 58 157 55 43 -3 73 11 152 73 40 31 69 46 89 46 30 0 30 0
11 -21 -10 -12 -57 -50 -102 -86 l-84 -64 -54 12 c-48 11 -56 10 -73 -5 -17
-16 -81 -126 -81 -140 0 -11 73 -6 129 8 31 8 78 20 104 27 41 10 69 31 179
133 72 67 135 131 139 143 5 14 1 34 -12 59 -23 47 -24 44 5 44 39 0 51 -46
51 -195 l0 -130 -40 -5 c-60 -8 -65 -15 -64 -78 1 -79 19 -136 45 -140 23 -3
38 11 99 99 79 113 80 116 61 255 -9 67 -16 152 -16 189 0 65 -2 69 -36 101
-42 40 -47 40 -184 14 -58 -11 -116 -20 -128 -20 -26 0 -26 -12 -6 134 3 25 1
61 -6 80 -10 32 -9 41 20 93 17 32 40 69 51 82 l20 24 121 -27 c208 -48 213
-50 258 -111 33 -45 46 -55 70 -55 16 0 32 -4 35 -10 3 -5 14 -10 24 -10 62 0
94 102 63 199 -9 30 -27 65 -39 77 -30 30 -79 129 -96 197 -8 30 -24 69 -36
85 -12 17 -21 37 -21 45 0 9 -27 41 -60 73 -33 31 -76 81 -96 111 -19 29 -39
53 -44 53 -17 0 -22 -50 -10 -96 15 -51 8 -65 -18 -41 -16 15 -21 15 -38 2
-12 -9 -31 -12 -53 -8 -26 4 -37 2 -47 -12 -12 -16 -17 -17 -38 -6 -26 14 -46
8 -46 -14 0 -19 -30 -27 -47 -13 -13 10 -19 7 -38 -16 -15 -19 -29 -27 -39
-23 -21 8 -46 -2 -46 -19 0 -9 -12 -14 -35 -14 -29 0 -37 -5 -45 -25 -8 -20
-16 -25 -37 -23 -21 2 -30 -3 -38 -20 -6 -14 -18 -22 -30 -21 -37 2 -45 -1
-45 -20 0 -20 -18 -31 -50 -31 -11 0 -24 -9 -30 -20 -8 -15 -17 -19 -31 -15
-15 5 -22 1 -26 -14 -3 -14 -13 -21 -29 -21 -14 0 -24 -6 -24 -14 0 -21 -84
-17 -88 4 -2 12 17 22 67 38 57 19 74 29 91 57 32 52 100 194 100 209 0 7 9
25 20 39 16 20 27 25 48 21 22 -4 29 0 40 22 6 16 12 34 12 41 0 7 5 13 11 13
7 0 9 12 7 31 -5 29 -3 31 23 25 16 -3 36 -3 44 0 21 9 19 42 -5 56 -11 7 -20
22 -20 32 0 33 -42 85 -86 106 -50 25 -79 25 -124 2z m-300 -747 c0 -18 7 -26
26 -31 23 -6 24 -8 10 -22 -11 -11 -36 -17 -76 -18 -55 -1 -60 1 -60 21 0 14
14 32 37 48 47 34 63 34 63 2z m965 -46 c11 -9 40 -23 65 -30 25 -7 50 -17 55
-22 7 -7 3 -7 -10 -3 -11 5 -60 18 -108 30 -87 23 -105 34 -70 47 22 8 42 2
68 -22z m-2357 -598 c11 -6 6 -19 -20 -57 -41 -58 -53 -86 -78 -185 l-18 -74
-1 105 c-1 116 16 173 60 204 26 18 38 20 57 7z"/>
</g>
</svg>
